ply
format ascii 1.0
comment Created by Blender 2.75 (sub 0) - www.blender.org, source file: 'ForestTutorial.blend'
element vertex 488
property float x
property float y
property float z
property float nx
property float ny
property float nz
element face 136
property list uchar uint vertex_indices
end_header
-0.836817 0.340616 2.239629 0.338461 0.874244 0.348054
-0.836817 0.158077 2.699605 0.338461 0.874244 0.348054
-0.815131 0.149095 2.699605 0.338461 0.874244 0.348054
-0.695563 0.268663 2.284475 0.338461 0.874244 0.348054
-0.695563 0.268663 2.284475 0.874244 0.338460 0.348054
-0.815131 0.149095 2.699605 0.874244 0.338460 0.348054
-0.806149 0.127408 2.699605 0.874244 0.338460 0.348054
-0.623610 0.127408 2.239629 0.874244 0.338460 0.348054
-0.623610 0.127408 2.239629 0.874244 -0.338461 0.348054
-0.806149 0.127408 2.699605 0.874244 -0.338461 0.348054
-0.815131 0.105722 2.699605 0.874244 -0.338461 0.348054
-0.695563 -0.013846 2.284475 0.874244 -0.338461 0.348054
-0.695563 -0.013846 2.284475 0.338461 -0.874244 0.348054
-0.815131 0.105722 2.699605 0.338461 -0.874244 0.348054
-0.836817 0.096740 2.699605 0.338461 -0.874244 0.348054
-0.836817 -0.085799 2.239629 0.338461 -0.874244 0.348054
-0.836817 -0.085799 2.239629 -0.338461 -0.874244 0.348054
-0.836817 0.096740 2.699605 -0.338461 -0.874244 0.348054
-0.858503 0.105722 2.699605 -0.338461 -0.874244 0.348054
-0.978072 -0.013846 2.284475 -0.338461 -0.874244 0.348054
-0.978072 -0.013846 2.284475 -0.874244 -0.338460 0.348054
-0.858503 0.105722 2.699605 -0.874244 -0.338460 0.348054
-0.867486 0.127408 2.699605 -0.874244 -0.338460 0.348054
-1.050025 0.127408 2.239629 -0.874244 -0.338460 0.348054
-0.815131 0.149095 2.699605 0.000000 -0.000000 1.000000
-0.815131 0.105722 2.699605 0.000000 -0.000000 1.000000
-0.806149 0.127408 2.699605 0.000000 -0.000000 1.000000
-0.858503 0.105722 2.699605 0.000000 0.000000 1.000000
-0.836817 0.096740 2.699605 0.000000 0.000000 1.000000
-0.858503 0.149095 2.699605 0.000000 -0.000000 1.000000
-0.867486 0.127408 2.699605 0.000000 -0.000000 1.000000
-0.836817 0.158077 2.699605 -0.000000 0.000000 1.000000
-0.978072 0.268663 2.284475 -0.338461 0.874244 0.348054
-0.858503 0.149095 2.699605 -0.338461 0.874244 0.348054
-0.836817 0.158077 2.699605 -0.338461 0.874244 0.348054
-0.836817 0.340616 2.239629 -0.338461 0.874244 0.348054
-1.050025 0.127408 2.239629 -0.874244 0.338460 0.348054
-0.867486 0.127408 2.699605 -0.874244 0.338460 0.348054
-0.858503 0.149095 2.699605 -0.874244 0.338460 0.348054
-0.978072 0.268663 2.284475 -0.874244 0.338460 0.348054
-0.836817 0.707325 0.358486 -0.225495 0.225495 -0.947789
-1.416734 0.127408 0.358486 -0.225495 0.225495 -0.947789
-1.221024 0.511615 0.403333 -0.225495 0.225495 -0.947789
-0.836817 -0.452509 0.358486 -0.225495 -0.225495 -0.947789
-1.221024 -0.256798 0.403333 -0.225495 -0.225495 -0.947789
-1.416734 0.127408 0.358486 -0.225495 -0.225495 -0.947789
-0.256900 0.127408 0.358486 0.225495 -0.225495 -0.947789
-0.452611 -0.256798 0.403333 0.225495 -0.225495 -0.947789
-0.836817 -0.452509 0.358486 0.225495 -0.225495 -0.947789
-0.836817 0.707325 0.358486 0.225495 0.225495 -0.947789
-0.452611 0.511615 0.403333 0.225495 0.225495 -0.947789
-0.256900 0.127408 0.358486 0.225495 0.225495 -0.947789
-0.836817 0.707325 0.358486 0.000000 0.000000 -1.000000
-0.836817 -0.452509 0.358486 0.000000 0.000000 -1.000000
-1.416734 0.127408 0.358486 0.000000 0.000000 -1.000000
-0.256900 0.127408 0.358486 0.000000 0.000000 -1.000000
-0.836817 0.801903 0.326069 0.388217 0.845621 0.366350
-0.836817 0.619008 0.741198 0.388217 0.845621 0.366350
-0.511123 0.453103 0.786045 0.388217 0.845621 0.366350
-0.389951 0.574274 0.370915 0.388217 0.845621 0.366350
-0.836817 0.741743 0.708781 0.368886 0.832258 0.413848
-0.836817 0.530691 1.123910 0.368886 0.832258 0.413848
-0.569635 0.394591 1.168757 0.368886 0.832258 0.413848
-0.429808 0.534418 0.753627 0.368886 0.832258 0.413848
-0.836817 0.657705 1.091493 0.357302 0.833773 0.420901
-0.836817 0.442374 1.506623 0.357302 0.833773 0.420901
-0.628146 0.336079 1.551469 0.357302 0.833773 0.420901
-0.485486 0.478740 1.136339 0.357302 0.833773 0.420901
-0.836817 0.545749 1.474205 0.354608 0.853489 0.381851
-0.836817 0.354057 1.889335 0.354608 0.853489 0.381851
-0.686658 0.277567 1.934181 0.354608 0.853489 0.381851
-0.559658 0.404567 1.519051 0.354608 0.853489 0.381851
-0.836817 0.455562 1.856917 0.330483 0.864520 0.378664
-0.836817 0.265740 2.272047 0.330483 0.864520 0.378664
-0.745170 0.219056 2.316893 0.330483 0.864520 0.378664
-0.619409 0.344816 1.901763 0.330483 0.864520 0.378664
-0.389951 0.574274 0.370915 0.845621 0.388218 0.366350
-0.511123 0.453103 0.786045 0.845621 0.388218 0.366350
-0.345217 0.127408 0.741198 0.845621 0.388218 0.366350
-0.162323 0.127408 0.326069 0.845621 0.388218 0.366350
-0.429808 0.534418 0.753627 0.832258 0.368886 0.413848
-0.569635 0.394591 1.168757 0.832258 0.368886 0.413848
-0.433535 0.127408 1.123910 0.832258 0.368886 0.413848
-0.222482 0.127408 0.708781 0.832258 0.368886 0.413848
-0.485486 0.478740 1.136339 0.833773 0.357302 0.420901
-0.628146 0.336079 1.551469 0.833773 0.357302 0.420901
-0.521852 0.127408 1.506623 0.833773 0.357302 0.420901
-0.306521 0.127408 1.091493 0.833773 0.357302 0.420901
-0.559658 0.404567 1.519051 0.853489 0.354608 0.381851
-0.686658 0.277567 1.934181 0.853489 0.354608 0.381851
-0.610169 0.127408 1.889334 0.853489 0.354608 0.381851
-0.418477 0.127408 1.474205 0.853489 0.354608 0.381851
-0.619409 0.344816 1.901763 0.864520 0.330483 0.378664
-0.745170 0.219056 2.316893 0.864520 0.330483 0.378664
-0.698486 0.127408 2.272047 0.864520 0.330483 0.378664
-0.508664 0.127408 1.856917 0.864520 0.330483 0.378664
-0.162323 0.127408 0.326069 0.845621 -0.388218 0.366350
-0.345217 0.127408 0.741198 0.845621 -0.388218 0.366350
-0.511123 -0.198286 0.786045 0.845621 -0.388218 0.366350
-0.389951 -0.319457 0.370915 0.845621 -0.388218 0.366350
-0.222482 0.127408 0.708781 0.832258 -0.368886 0.413848
-0.433535 0.127408 1.123910 0.832258 -0.368886 0.413848
-0.569635 -0.139774 1.168757 0.832258 -0.368886 0.413848
-0.429808 -0.279601 0.753627 0.832258 -0.368886 0.413848
-0.306521 0.127408 1.091493 0.833773 -0.357302 0.420901
-0.521852 0.127408 1.506623 0.833773 -0.357302 0.420901
-0.628146 -0.081262 1.551469 0.833773 -0.357302 0.420901
-0.485486 -0.223923 1.136339 0.833773 -0.357302 0.420901
-0.418477 0.127408 1.474205 0.853489 -0.354608 0.381851
-0.610169 0.127408 1.889334 0.853489 -0.354608 0.381851
-0.686658 -0.022751 1.934181 0.853489 -0.354608 0.381851
-0.559658 -0.149750 1.519051 0.853489 -0.354608 0.381851
-0.508664 0.127408 1.856917 0.864520 -0.330483 0.378664
-0.698486 0.127408 2.272047 0.864520 -0.330483 0.378664
-0.745170 0.035761 2.316893 0.864520 -0.330483 0.378664
-0.619409 -0.089999 1.901763 0.864520 -0.330483 0.378664
-0.389951 -0.319457 0.370915 0.388218 -0.845621 0.366350
-0.511123 -0.198286 0.786045 0.388218 -0.845621 0.366350
-0.836817 -0.364191 0.741198 0.388218 -0.845621 0.366350
-0.836817 -0.547086 0.326069 0.388218 -0.845621 0.366350
-0.429808 -0.279601 0.753627 0.368886 -0.832258 0.413848
-0.569635 -0.139774 1.168757 0.368886 -0.832258 0.413848
-0.836817 -0.275874 1.123910 0.368886 -0.832258 0.413848
-0.836817 -0.486926 0.708781 0.368886 -0.832258 0.413848
-0.485486 -0.223923 1.136339 0.357302 -0.833773 0.420901
-0.628146 -0.081262 1.551469 0.357302 -0.833773 0.420901
-0.836817 -0.187557 1.506623 0.357302 -0.833773 0.420901
-0.836817 -0.402888 1.091493 0.357302 -0.833773 0.420901
-0.559658 -0.149750 1.519051 0.354608 -0.853489 0.381851
-0.686658 -0.022751 1.934181 0.354608 -0.853489 0.381851
-0.836817 -0.099240 1.889334 0.354608 -0.853489 0.381851
-0.836817 -0.290932 1.474205 0.354608 -0.853489 0.381851
-0.619409 -0.089999 1.901763 0.330483 -0.864520 0.378664
-0.745170 0.035761 2.316893 0.330483 -0.864520 0.378664
-0.836817 -0.010923 2.272047 0.330483 -0.864520 0.378664
-0.836817 -0.200745 1.856917 0.330483 -0.864520 0.378664
-0.836817 -0.547086 0.326069 -0.388218 -0.845621 0.366350
-0.836817 -0.364191 0.741198 -0.388218 -0.845621 0.366350
-1.162512 -0.198286 0.786045 -0.388218 -0.845621 0.366350
-1.283683 -0.319457 0.370915 -0.388218 -0.845621 0.366350
-0.836817 -0.486926 0.708781 -0.368886 -0.832258 0.413848
-0.836817 -0.275874 1.123910 -0.368886 -0.832258 0.413848
-1.104000 -0.139774 1.168757 -0.368886 -0.832258 0.413848
-1.243826 -0.279601 0.753627 -0.368886 -0.832258 0.413848
-0.836817 -0.402888 1.091493 -0.357302 -0.833773 0.420901
-0.836817 -0.187557 1.506623 -0.357302 -0.833773 0.420901
-1.045488 -0.081262 1.551469 -0.357302 -0.833773 0.420901
-1.188149 -0.223923 1.136339 -0.357302 -0.833773 0.420901
-0.836817 -0.290932 1.474205 -0.354608 -0.853489 0.381851
-0.836817 -0.099240 1.889334 -0.354608 -0.853489 0.381851
-0.986976 -0.022750 1.934181 -0.354608 -0.853489 0.381851
-1.113976 -0.149750 1.519051 -0.354608 -0.853489 0.381851
-0.836817 -0.200745 1.856917 -0.330483 -0.864520 0.378664
-0.836817 -0.010923 2.272047 -0.330483 -0.864520 0.378664
-0.928464 0.035761 2.316893 -0.330483 -0.864520 0.378664
-1.054225 -0.089999 1.901763 -0.330483 -0.864520 0.378664
-1.283683 -0.319457 0.370915 -0.845621 -0.388217 0.366350
-1.162512 -0.198286 0.786045 -0.845621 -0.388217 0.366350
-1.328417 0.127408 0.741198 -0.845621 -0.388217 0.366350
-1.511312 0.127408 0.326069 -0.845621 -0.388217 0.366350
-1.243826 -0.279601 0.753627 -0.832258 -0.368886 0.413848
-1.104000 -0.139774 1.168757 -0.832258 -0.368886 0.413848
-1.240100 0.127408 1.123910 -0.832258 -0.368886 0.413848
-1.451152 0.127408 0.708781 -0.832258 -0.368886 0.413848
-1.188149 -0.223923 1.136339 -0.833773 -0.357302 0.420901
-1.045488 -0.081262 1.551469 -0.833773 -0.357302 0.420901
-1.151783 0.127408 1.506623 -0.833773 -0.357302 0.420901
-1.367113 0.127408 1.091493 -0.833773 -0.357302 0.420901
-1.113976 -0.149750 1.519051 -0.853489 -0.354608 0.381851
-0.986976 -0.022750 1.934181 -0.853489 -0.354608 0.381851
-1.063466 0.127408 1.889334 -0.853489 -0.354608 0.381851
-1.255158 0.127408 1.474205 -0.853489 -0.354608 0.381851
-1.054225 -0.089999 1.901763 -0.864520 -0.330483 0.378664
-0.928464 0.035761 2.316893 -0.864520 -0.330483 0.378664
-0.975148 0.127408 2.272047 -0.864520 -0.330483 0.378664
-1.164970 0.127408 1.856917 -0.864520 -0.330483 0.378664
-1.283683 0.574274 0.370915 -0.388218 0.845621 0.366350
-1.162512 0.453103 0.786045 -0.388218 0.845621 0.366350
-0.836817 0.619008 0.741198 -0.388218 0.845621 0.366350
-0.836817 0.801903 0.326069 -0.388218 0.845621 0.366350
-1.243826 0.534417 0.753627 -0.368886 0.832258 0.413848
-1.104000 0.394591 1.168757 -0.368886 0.832258 0.413848
-0.836817 0.530691 1.123910 -0.368886 0.832258 0.413848
-0.836817 0.741743 0.708781 -0.368886 0.832258 0.413848
-1.188149 0.478740 1.136339 -0.357302 0.833773 0.420901
-1.045488 0.336079 1.551469 -0.357302 0.833773 0.420901
-0.836817 0.442374 1.506623 -0.357302 0.833773 0.420901
-0.836817 0.657705 1.091493 -0.357302 0.833773 0.420901
-1.113976 0.404567 1.519051 -0.354609 0.853489 0.381851
-0.986976 0.277567 1.934181 -0.354609 0.853489 0.381851
-0.836817 0.354057 1.889335 -0.354609 0.853489 0.381851
-0.836817 0.545749 1.474205 -0.354609 0.853489 0.381851
-1.054225 0.344816 1.901763 -0.330483 0.864520 0.378664
-0.928464 0.219056 2.316893 -0.330483 0.864520 0.378664
-0.836817 0.265740 2.272047 -0.330483 0.864520 0.378664
-0.836817 0.455562 1.856917 -0.330483 0.864520 0.378664
-1.511312 0.127408 0.326069 -0.845621 0.388217 0.366350
-1.328417 0.127408 0.741198 -0.845621 0.388217 0.366350
-1.162512 0.453103 0.786045 -0.845621 0.388217 0.366350
-1.283683 0.574274 0.370915 -0.845621 0.388217 0.366350
-1.451152 0.127408 0.708781 -0.832258 0.368886 0.413848
-1.240100 0.127408 1.123910 -0.832258 0.368886 0.413848
-1.104000 0.394591 1.168757 -0.832258 0.368886 0.413848
-1.243826 0.534417 0.753627 -0.832258 0.368886 0.413848
-1.367113 0.127408 1.091493 -0.833773 0.357302 0.420901
-1.151783 0.127408 1.506623 -0.833773 0.357302 0.420901
-1.045488 0.336079 1.551469 -0.833773 0.357302 0.420901
-1.188149 0.478740 1.136339 -0.833773 0.357302 0.420901
-1.255158 0.127408 1.474205 -0.853489 0.354608 0.381851
-1.063466 0.127408 1.889334 -0.853489 0.354608 0.381851
-0.986976 0.277567 1.934181 -0.853489 0.354608 0.381851
-1.113976 0.404567 1.519051 -0.853489 0.354608 0.381851
-1.164970 0.127408 1.856917 -0.864520 0.330483 0.378664
-0.975148 0.127408 2.272047 -0.864520 0.330483 0.378664
-0.928464 0.219056 2.316893 -0.864520 0.330483 0.378664
-1.054225 0.344816 1.901763 -0.864520 0.330483 0.378664
-0.836817 0.265740 2.272047 0.086544 -0.487113 -0.869040
-0.836817 0.340616 2.239629 0.086544 -0.487113 -0.869040
-0.695563 0.268663 2.284475 0.086544 -0.487113 -0.869040
-0.745170 0.219056 2.316893 0.086544 -0.487113 -0.869040
-0.745170 0.219056 2.316893 -0.487114 0.086546 -0.869040
-0.695563 0.268663 2.284475 -0.487114 0.086546 -0.869040
-0.623610 0.127408 2.239629 -0.487114 0.086546 -0.869040
-0.698486 0.127408 2.272047 -0.487114 0.086546 -0.869040
-0.698486 0.127408 2.272047 -0.487114 -0.086546 -0.869040
-0.623610 0.127408 2.239629 -0.487114 -0.086546 -0.869040
-0.695563 -0.013846 2.284475 -0.487114 -0.086546 -0.869040
-0.745170 0.035761 2.316893 -0.487114 -0.086546 -0.869040
-0.745170 0.035761 2.316893 0.086546 0.487113 -0.869040
-0.695563 -0.013846 2.284475 0.086546 0.487113 -0.869040
-0.836817 -0.085799 2.239629 0.086546 0.487113 -0.869040
-0.836817 -0.010923 2.272047 0.086546 0.487113 -0.869040
-0.836817 -0.010923 2.272047 -0.086545 0.487113 -0.869040
-0.836817 -0.085799 2.239629 -0.086545 0.487113 -0.869040
-0.978072 -0.013846 2.284475 -0.086545 0.487113 -0.869040
-0.928464 0.035761 2.316893 -0.086545 0.487113 -0.869040
-0.928464 0.035761 2.316893 0.487113 -0.086546 -0.869040
-0.978072 -0.013846 2.284475 0.487113 -0.086546 -0.869040
-1.050025 0.127408 2.239629 0.487113 -0.086546 -0.869040
-0.975148 0.127408 2.272047 0.487113 -0.086546 -0.869040
-0.928464 0.219056 2.316893 -0.086544 -0.487113 -0.869040
-0.978072 0.268663 2.284475 -0.086544 -0.487113 -0.869040
-0.836817 0.340616 2.239629 -0.086544 -0.487113 -0.869040
-0.836817 0.265740 2.272047 -0.086544 -0.487113 -0.869040
-0.975148 0.127408 2.272047 0.487113 0.086546 -0.869040
-1.050025 0.127408 2.239629 0.487113 0.086546 -0.869040
-0.978072 0.268663 2.284475 0.487113 0.086546 -0.869040
-0.928464 0.219056 2.316893 0.487113 0.086546 -0.869040
-0.836817 0.354057 1.889335 0.037256 -0.371296 -0.927767
-0.836817 0.455562 1.856917 0.037256 -0.371296 -0.927767
-0.619409 0.344816 1.901763 0.037256 -0.371296 -0.927767
-0.686658 0.277567 1.934181 0.037256 -0.371296 -0.927767
-0.686658 0.277567 1.934181 -0.371296 0.037257 -0.927767
-0.619409 0.344816 1.901763 -0.371296 0.037257 -0.927767
-0.508664 0.127408 1.856917 -0.371296 0.037257 -0.927767
-0.610169 0.127408 1.889334 -0.371296 0.037257 -0.927767
-0.610169 0.127408 1.889334 -0.371296 -0.037257 -0.927767
-0.508664 0.127408 1.856917 -0.371296 -0.037257 -0.927767
-0.619409 -0.089999 1.901763 -0.371296 -0.037257 -0.927767
-0.686658 -0.022751 1.934181 -0.371296 -0.037257 -0.927767
-0.686658 -0.022751 1.934181 0.037257 0.371296 -0.927767
-0.619409 -0.089999 1.901763 0.037257 0.371296 -0.927767
-0.836817 -0.200745 1.856917 0.037257 0.371296 -0.927767
-0.836817 -0.099240 1.889334 0.037257 0.371296 -0.927767
-0.836817 -0.099240 1.889334 -0.037257 0.371296 -0.927767
-0.836817 -0.200745 1.856917 -0.037257 0.371296 -0.927767
-1.054225 -0.089999 1.901763 -0.037257 0.371296 -0.927767
-0.986976 -0.022750 1.934181 -0.037257 0.371296 -0.927767
-0.986976 -0.022750 1.934181 0.371296 -0.037257 -0.927767
-1.054225 -0.089999 1.901763 0.371296 -0.037257 -0.927767
-1.164970 0.127408 1.856917 0.371296 -0.037257 -0.927767
-1.063466 0.127408 1.889334 0.371296 -0.037257 -0.927767
-0.986976 0.277567 1.934181 -0.037256 -0.371296 -0.927767
-1.054225 0.344816 1.901763 -0.037256 -0.371296 -0.927767
-0.836817 0.455562 1.856917 -0.037256 -0.371296 -0.927767
-0.836817 0.354057 1.889335 -0.037256 -0.371296 -0.927767
-1.063466 0.127408 1.889334 0.371296 0.037257 -0.927767
-1.164970 0.127408 1.856917 0.371296 0.037257 -0.927767
-1.054225 0.344816 1.901763 0.371296 0.037257 -0.927767
-0.986976 0.277567 1.934181 0.371296 0.037257 -0.927767
-0.836817 0.442374 1.506623 -0.005876 -0.350911 -0.936391
-0.836817 0.545749 1.474205 -0.005876 -0.350911 -0.936391
-0.559658 0.404567 1.519051 -0.005876 -0.350911 -0.936391
-0.628146 0.336079 1.551469 -0.005876 -0.350911 -0.936391
-0.628146 0.336079 1.551469 -0.350911 -0.005876 -0.936391
-0.559658 0.404567 1.519051 -0.350911 -0.005876 -0.936391
-0.418477 0.127408 1.474205 -0.350911 -0.005876 -0.936391
-0.521852 0.127408 1.506623 -0.350911 -0.005876 -0.936391
-0.521852 0.127408 1.506623 -0.350911 0.005876 -0.936391
-0.418477 0.127408 1.474205 -0.350911 0.005876 -0.936391
-0.559658 -0.149750 1.519051 -0.350911 0.005876 -0.936391
-0.628146 -0.081262 1.551469 -0.350911 0.005876 -0.936391
-0.628146 -0.081262 1.551469 -0.005876 0.350911 -0.936391
-0.559658 -0.149750 1.519051 -0.005876 0.350911 -0.936391
-0.836817 -0.290932 1.474205 -0.005876 0.350911 -0.936391
-0.836817 -0.187557 1.506623 -0.005876 0.350911 -0.936391
-0.836817 -0.187557 1.506623 0.005876 0.350911 -0.936391
-0.836817 -0.290932 1.474205 0.005876 0.350911 -0.936391
-1.113976 -0.149750 1.519051 0.005876 0.350911 -0.936391
-1.045488 -0.081262 1.551469 0.005876 0.350911 -0.936391
-1.045488 -0.081262 1.551469 0.350911 0.005876 -0.936391
-1.113976 -0.149750 1.519051 0.350911 0.005876 -0.936391
-1.255158 0.127408 1.474205 0.350911 0.005876 -0.936391
-1.151783 0.127408 1.506623 0.350911 0.005876 -0.936391
-1.045488 0.336079 1.551469 0.005876 -0.350911 -0.936391
-1.113976 0.404567 1.519051 0.005876 -0.350911 -0.936391
-0.836817 0.545749 1.474205 0.005876 -0.350911 -0.936391
-0.836817 0.442374 1.506623 0.005876 -0.350911 -0.936391
-1.151783 0.127408 1.506623 0.350911 -0.005876 -0.936391
-1.255158 0.127408 1.474205 0.350911 -0.005876 -0.936391
-1.113976 0.404567 1.519051 0.350911 -0.005876 -0.936391
-1.045488 0.336079 1.551469 0.350911 -0.005876 -0.936391
-0.836817 0.530691 1.123910 -0.009060 -0.290202 -0.956922
-0.836817 0.657705 1.091493 -0.009060 -0.290202 -0.956922
-0.485486 0.478740 1.136339 -0.009060 -0.290202 -0.956922
-0.569635 0.394591 1.168757 -0.009060 -0.290202 -0.956922
-0.569635 0.394591 1.168757 -0.290202 -0.009060 -0.956923
-0.485486 0.478740 1.136339 -0.290202 -0.009060 -0.956923
-0.306521 0.127408 1.091493 -0.290202 -0.009060 -0.956923
-0.433535 0.127408 1.123910 -0.290202 -0.009060 -0.956923
-0.433535 0.127408 1.123910 -0.290202 0.009060 -0.956923
-0.306521 0.127408 1.091493 -0.290202 0.009060 -0.956923
-0.485486 -0.223923 1.136339 -0.290202 0.009060 -0.956923
-0.569635 -0.139774 1.168757 -0.290202 0.009060 -0.956923
-0.569635 -0.139774 1.168757 -0.009060 0.290202 -0.956922
-0.485486 -0.223923 1.136339 -0.009060 0.290202 -0.956922
-0.836817 -0.402888 1.091493 -0.009060 0.290202 -0.956922
-0.836817 -0.275874 1.123910 -0.009060 0.290202 -0.956922
-0.836817 -0.275874 1.123910 0.009060 0.290202 -0.956922
-0.836817 -0.402888 1.091493 0.009060 0.290202 -0.956922
-1.188149 -0.223923 1.136339 0.009060 0.290202 -0.956922
-1.104000 -0.139774 1.168757 0.009060 0.290202 -0.956922
-1.104000 -0.139774 1.168757 0.290202 0.009060 -0.956922
-1.188149 -0.223923 1.136339 0.290202 0.009060 -0.956922
-1.367113 0.127408 1.091493 0.290202 0.009060 -0.956922
-1.240100 0.127408 1.123910 0.290202 0.009060 -0.956922
-1.104000 0.394591 1.168757 0.009060 -0.290202 -0.956922
-1.188149 0.478740 1.136339 0.009060 -0.290202 -0.956922
-0.836817 0.657705 1.091493 0.009060 -0.290202 -0.956922
-0.836817 0.530691 1.123910 0.009060 -0.290202 -0.956922
-1.240100 0.127408 1.123910 0.290202 -0.009060 -0.956922
-1.367113 0.127408 1.091493 0.290202 -0.009060 -0.956922
-1.188149 0.478740 1.136339 0.290202 -0.009060 -0.956922
-1.104000 0.394591 1.168757 0.290202 -0.009060 -0.956922
-0.836817 0.619008 0.741198 -0.031347 -0.291306 -0.956116
-0.836817 0.741743 0.708781 -0.031347 -0.291306 -0.956116
-0.429808 0.534418 0.753627 -0.031347 -0.291306 -0.956116
-0.511123 0.453103 0.786045 -0.031347 -0.291306 -0.956116
-0.511123 0.453103 0.786045 -0.291306 -0.031347 -0.956116
-0.429808 0.534418 0.753627 -0.291306 -0.031347 -0.956116
-0.222482 0.127408 0.708781 -0.291306 -0.031347 -0.956116
-0.345217 0.127408 0.741198 -0.291306 -0.031347 -0.956116
-0.345217 0.127408 0.741198 -0.291306 0.031347 -0.956116
-0.222482 0.127408 0.708781 -0.291306 0.031347 -0.956116
-0.429808 -0.279601 0.753627 -0.291306 0.031347 -0.956116
-0.511123 -0.198286 0.786045 -0.291306 0.031347 -0.956116
-0.511123 -0.198286 0.786045 -0.031347 0.291306 -0.956116
-0.429808 -0.279601 0.753627 -0.031347 0.291306 -0.956116
-0.836817 -0.486926 0.708781 -0.031347 0.291306 -0.956116
-0.836817 -0.364191 0.741198 -0.031347 0.291306 -0.956116
-0.836817 -0.364191 0.741198 0.031347 0.291306 -0.956116
-0.836817 -0.486926 0.708781 0.031347 0.291306 -0.956116
-1.243826 -0.279601 0.753627 0.031347 0.291306 -0.956116
-1.162512 -0.198286 0.786045 0.031347 0.291306 -0.956116
-1.162512 -0.198286 0.786045 0.291306 0.031347 -0.956116
-1.243826 -0.279601 0.753627 0.291306 0.031347 -0.956116
-1.451152 0.127408 0.708781 0.291306 0.031347 -0.956116
-1.328417 0.127408 0.741198 0.291306 0.031347 -0.956116
-1.162512 0.453103 0.786045 0.031347 -0.291306 -0.956116
-1.243826 0.534417 0.753627 0.031347 -0.291306 -0.956116
-0.836817 0.741743 0.708781 0.031347 -0.291306 -0.956116
-0.836817 0.619008 0.741198 0.031347 -0.291306 -0.956116
-1.328417 0.127408 0.741198 0.291306 -0.031347 -0.956116
-1.451152 0.127408 0.708781 0.291306 -0.031347 -0.956116
-1.243826 0.534417 0.753627 0.291306 -0.031347 -0.956116
-1.162512 0.453103 0.786045 0.291306 -0.031347 -0.956116
-0.836817 0.707325 0.358486 -0.079141 -0.352893 -0.932311
-0.836817 0.801903 0.326069 -0.079141 -0.352893 -0.932311
-0.389951 0.574274 0.370915 -0.079141 -0.352893 -0.932311
-0.452611 0.511615 0.403333 -0.079141 -0.352893 -0.932311
-0.452611 0.511615 0.403333 -0.352893 -0.079141 -0.932311
-0.389951 0.574274 0.370915 -0.352893 -0.079141 -0.932311
-0.162323 0.127408 0.326069 -0.352893 -0.079141 -0.932311
-0.256900 0.127408 0.358486 -0.352893 -0.079141 -0.932311
-0.256900 0.127408 0.358486 -0.352893 0.079141 -0.932311
-0.162323 0.127408 0.326069 -0.352893 0.079141 -0.932311
-0.389951 -0.319457 0.370915 -0.352893 0.079141 -0.932311
-0.452611 -0.256798 0.403333 -0.352893 0.079141 -0.932311
-0.452611 -0.256798 0.403333 -0.079141 0.352893 -0.932311
-0.389951 -0.319457 0.370915 -0.079141 0.352893 -0.932311
-0.836817 -0.547086 0.326069 -0.079141 0.352893 -0.932311
-0.836817 -0.452509 0.358486 -0.079141 0.352893 -0.932311
-0.836817 -0.452509 0.358486 0.079141 0.352893 -0.932311
-0.836817 -0.547086 0.326069 0.079141 0.352893 -0.932311
-1.283683 -0.319457 0.370915 0.079141 0.352893 -0.932311
-1.221024 -0.256798 0.403333 0.079141 0.352893 -0.932311
-1.221024 -0.256798 0.403333 0.352893 0.079141 -0.932310
-1.283683 -0.319457 0.370915 0.352893 0.079141 -0.932310
-1.511312 0.127408 0.326069 0.352893 0.079141 -0.932310
-1.416734 0.127408 0.358486 0.352893 0.079141 -0.932310
-0.836817 0.801903 0.326069 0.079141 -0.352893 -0.932311
-0.836817 0.707325 0.358486 0.079141 -0.352893 -0.932311
-1.221024 0.511615 0.403333 0.079141 -0.352893 -0.932311
-1.283683 0.574274 0.370915 0.079141 -0.352893 -0.932311
-1.416734 0.127408 0.358486 0.352893 -0.079141 -0.932310
-1.511312 0.127408 0.326069 0.352893 -0.079141 -0.932310
-1.283683 0.574274 0.370915 0.352893 -0.079141 -0.932310
-1.221024 0.511615 0.403333 0.352893 -0.079141 -0.932310
-0.926553 0.037673 -0.073123 -0.922509 -0.382116 0.054453
-0.915069 0.049157 0.202029 -0.922509 -0.382116 0.054453
-0.947482 0.127408 0.202029 -0.922509 -0.382116 0.054453
-0.963723 0.127408 -0.073123 -0.922509 -0.382116 0.054453
-0.836817 0.238073 0.202029 0.382116 0.922509 -0.054453
-0.836817 0.254314 0.477180 0.382116 0.922509 -0.054453
-0.747081 0.217144 0.477180 0.382116 0.922509 -0.054453
-0.758566 0.205660 0.202029 0.382116 0.922509 -0.054453
-0.926553 0.217144 -0.073123 -0.382116 0.922509 0.054453
-0.915069 0.205660 0.202029 -0.382116 0.922509 0.054453
-0.836817 0.238073 0.202029 -0.382116 0.922509 0.054453
-0.836817 0.254314 -0.073123 -0.382116 0.922509 0.054453
-0.758566 0.205660 0.202029 0.922509 0.382116 -0.054453
-0.747081 0.217144 0.477180 0.922509 0.382116 -0.054453
-0.709912 0.127408 0.477180 0.922509 0.382116 -0.054453
-0.726153 0.127408 0.202029 0.922509 0.382116 -0.054453
-0.747081 0.037673 -0.073123 0.382116 -0.922509 0.054453
-0.758566 0.049157 0.202029 0.382116 -0.922509 0.054453
-0.836817 0.016744 0.202029 0.382116 -0.922509 0.054453
-0.836817 0.000503 -0.073123 0.382116 -0.922509 0.054453
-0.726153 0.127408 0.202029 0.922509 -0.382116 -0.054453
-0.709912 0.127408 0.477180 0.922509 -0.382116 -0.054453
-0.747081 0.037673 0.477180 0.922509 -0.382116 -0.054453
-0.758566 0.049157 0.202029 0.922509 -0.382116 -0.054453
-0.709912 0.127408 -0.073123 0.922509 -0.382116 0.054453
-0.726153 0.127408 0.202029 0.922509 -0.382116 0.054453
-0.758566 0.049157 0.202029 0.922509 -0.382116 0.054453
-0.747081 0.037673 -0.073123 0.922509 -0.382116 0.054453
-0.758566 0.049157 0.202029 0.382116 -0.922509 -0.054453
-0.747081 0.037673 0.477180 0.382116 -0.922509 -0.054453
-0.836817 0.000503 0.477180 0.382116 -0.922509 -0.054453
-0.836817 0.016744 0.202029 0.382116 -0.922509 -0.054453
-0.747081 0.217144 -0.073123 0.922509 0.382116 0.054453
-0.758566 0.205660 0.202029 0.922509 0.382116 0.054453
-0.726153 0.127408 0.202029 0.922509 0.382116 0.054453
-0.709912 0.127408 -0.073123 0.922509 0.382116 0.054453
-0.836817 0.016744 0.202029 -0.382116 -0.922509 -0.054453
-0.836817 0.000503 0.477180 -0.382116 -0.922509 -0.054453
-0.926553 0.037673 0.477180 -0.382116 -0.922509 -0.054453
-0.915069 0.049157 0.202029 -0.382116 -0.922509 -0.054453
-0.963723 0.127408 -0.073123 -0.922509 0.382116 0.054453
-0.947482 0.127408 0.202029 -0.922509 0.382116 0.054453
-0.915069 0.205660 0.202029 -0.922509 0.382116 0.054453
-0.926553 0.217144 -0.073123 -0.922509 0.382116 0.054453
-0.836817 0.254314 -0.073123 0.382116 0.922509 0.054453
-0.836817 0.238073 0.202029 0.382116 0.922509 0.054453
-0.758566 0.205660 0.202029 0.382116 0.922509 0.054453
-0.747081 0.217144 -0.073123 0.382116 0.922509 0.054453
-0.915069 0.049157 0.202029 -0.922509 -0.382116 -0.054453
-0.926553 0.037673 0.477180 -0.922509 -0.382116 -0.054453
-0.963723 0.127408 0.477180 -0.922509 -0.382116 -0.054453
-0.947482 0.127408 0.202029 -0.922509 -0.382116 -0.054453
-0.747081 0.217144 0.477180 0.000000 -0.000000 1.000000
-0.747081 0.037673 0.477180 0.000000 -0.000000 1.000000
-0.709912 0.127408 0.477180 0.000000 -0.000000 1.000000
-0.926553 0.037673 0.477180 0.000000 0.000000 1.000000
-0.836817 0.000503 0.477180 0.000000 0.000000 1.000000
-0.926553 0.217144 0.477180 0.000000 -0.000000 1.000000
-0.963723 0.127408 0.477180 0.000000 -0.000000 1.000000
-0.836817 0.254314 0.477180 -0.000000 0.000000 1.000000
-0.915069 0.205660 0.202029 -0.382116 0.922509 -0.054453
-0.926553 0.217144 0.477180 -0.382116 0.922509 -0.054453
-0.836817 0.254314 0.477180 -0.382116 0.922509 -0.054453
-0.836817 0.238073 0.202029 -0.382116 0.922509 -0.054453
-0.947482 0.127408 0.202029 -0.922509 0.382116 -0.054453
-0.963723 0.127408 0.477180 -0.922509 0.382116 -0.054453
-0.926553 0.217144 0.477180 -0.922509 0.382116 -0.054453
-0.915069 0.205660 0.202029 -0.922509 0.382116 -0.054453
-0.836817 0.000503 -0.073123 -0.382116 -0.922509 0.054453
-0.836817 0.016744 0.202029 -0.382116 -0.922509 0.054453
-0.915069 0.049157 0.202029 -0.382116 -0.922509 0.054453
-0.926553 0.037673 -0.073123 -0.382116 -0.922509 0.054453
-0.836817 0.254314 -0.073123 0.000000 -0.000000 -1.000000
-0.963723 0.127408 -0.073123 0.000000 -0.000000 -1.000000
-0.926553 0.217144 -0.073123 0.000000 -0.000000 -1.000000
-0.836817 0.000503 -0.073123 0.000000 0.000000 -1.000000
-0.926553 0.037673 -0.073123 0.000000 0.000000 -1.000000
-0.709912 0.127408 -0.073123 0.000000 0.000000 -1.000000
-0.747081 0.037673 -0.073123 0.000000 0.000000 -1.000000
-0.747081 0.217144 -0.073123 0.000000 0.000000 -1.000000
4 0 1 2 3
4 4 5 6 7
4 8 9 10 11
4 12 13 14 15
4 16 17 18 19
4 20 21 22 23
3 24 25 26
3 27 28 25
3 29 30 27
3 24 31 29
3 24 27 25
3 24 29 27
4 32 33 34 35
4 36 37 38 39
3 40 41 42
3 43 44 45
3 46 47 48
3 49 50 51
3 52 53 54
3 52 55 53
4 56 57 58 59
4 60 61 62 63
4 64 65 66 67
4 68 69 70 71
4 72 73 74 75
4 76 77 78 79
4 80 81 82 83
4 84 85 86 87
4 88 89 90 91
4 92 93 94 95
4 96 97 98 99
4 100 101 102 103
4 104 105 106 107
4 108 109 110 111
4 112 113 114 115
4 116 117 118 119
4 120 121 122 123
4 124 125 126 127
4 128 129 130 131
4 132 133 134 135
4 136 137 138 139
4 140 141 142 143
4 144 145 146 147
4 148 149 150 151
4 152 153 154 155
4 156 157 158 159
4 160 161 162 163
4 164 165 166 167
4 168 169 170 171
4 172 173 174 175
4 176 177 178 179
4 180 181 182 183
4 184 185 186 187
4 188 189 190 191
4 192 193 194 195
4 196 197 198 199
4 200 201 202 203
4 204 205 206 207
4 208 209 210 211
4 212 213 214 215
4 216 217 218 219
4 220 221 222 223
4 224 225 226 227
4 228 229 230 231
4 232 233 234 235
4 236 237 238 239
4 240 241 242 243
4 244 245 246 247
4 248 249 250 251
4 252 253 254 255
4 256 257 258 259
4 260 261 262 263
4 264 265 266 267
4 268 269 270 271
4 272 273 274 275
4 276 277 278 279
4 280 281 282 283
4 284 285 286 287
4 288 289 290 291
4 292 293 294 295
4 296 297 298 299
4 300 301 302 303
4 304 305 306 307
4 308 309 310 311
4 312 313 314 315
4 316 317 318 319
4 320 321 322 323
4 324 325 326 327
4 328 329 330 331
4 332 333 334 335
4 336 337 338 339
4 340 341 342 343
4 344 345 346 347
4 348 349 350 351
4 352 353 354 355
4 356 357 358 359
4 360 361 362 363
4 364 365 366 367
4 368 369 370 371
4 372 373 374 375
4 376 377 378 379
4 380 381 382 383
4 384 385 386 387
4 388 389 390 391
4 392 393 394 395
4 396 397 398 399
4 400 401 402 403
4 404 405 406 407
4 408 409 410 411
4 412 413 414 415
4 416 417 418 419
4 420 421 422 423
4 424 425 426 427
4 428 429 430 431
4 432 433 434 435
4 436 437 438 439
4 440 441 442 443
4 444 445 446 447
4 448 449 450 451
4 452 453 454 455
4 456 457 458 459
3 460 461 462
3 463 464 461
3 465 466 463
3 460 467 465
3 460 463 461
3 460 465 463
4 468 469 470 471
4 472 473 474 475
4 476 477 478 479
3 480 481 482
3 483 484 481
3 485 486 483
3 480 487 485
3 480 483 481
3 480 485 483
